# File created by Blade
# Date/Time:  Fri Jan 16 19:49:56 2015
# Frame Rate: 120.000 fps
#------------------------------------------------------
:FULLY-SPECIFIED
:DEGREES
476
root 20.030842 35.120616 -12.400782 -107.580771 1.618535 -178.651736
Spine 70.380069 1.411075 -8.735481
Head -13.263661 2.997417 -0.386515
LeftShoulder -20.057030 20.138656 11.314515
LeftArm -58.287784 9.767049 -101.961078
LeftForeArm 20.549738 0.000000 -0.807936
LeftHand -1.178092 0.000000 -41.545247
LeftHandThumb1 -26.253704 0.000000 33.147579
RightShoulder -25.196143 -50.900594 -5.403514
RightArm -21.713499 -24.341474 85.154209
RightForeArm -34.852860 -0.000000 7.657616
RightHand 4.536649 0.000000 49.130764
RightHandThumb1 -24.326973 -0.000000 -32.862282
LeftUpLeg -77.774486 5.676736 4.663786
LeftLeg -5.095834 -0.000000 0.000000
LeftFoot -7.072168 33.520731 -8.702184
LeftToeBase 27.065433 -0.000000 -0.000000
RightUpLeg -77.881478 -2.627202 -5.677841
RightLeg -4.636263 -0.000000 0.000000
RightFoot -6.361742 -19.555032 12.414842
RightToeBase 26.544638 -0.000000 -0.000000
477
root 20.027855 35.124079 -12.417419 -107.580236 1.663106 -178.666546
Spine 70.360560 1.413559 -8.742370
Head -13.295405 2.999495 -0.372543
LeftShoulder -20.037388 20.106592 11.318588
LeftArm -58.249966 9.742199 -101.953639
LeftForeArm 20.362072 -0.000000 -0.756710
LeftHand -1.206122 -0.000000 -41.481105
LeftHandThumb1 -26.253704 0.000000 33.147579
RightShoulder -25.126467 -50.758514 -5.464514
RightArm -21.761119 -24.409659 85.259896
RightForeArm -34.803110 -0.000000 7.686402
RightHand 4.545992 0.000000 49.188637
RightHandThumb1 -24.326973 -0.000000 -32.862282
LeftUpLeg -77.733953 5.642346 4.780412
LeftLeg -5.077646 -0.000000 0.000000
LeftFoot -7.133704 33.635712 -8.757600
LeftToeBase 27.018598 -0.000000 -0.000000
RightUpLeg -77.851140 -2.631712 -5.700436
RightLeg -4.660175 -0.000000 0.000000
RightFoot -6.380261 -19.553332 12.281356
RightToeBase 26.867642 -0.000000 -0.000000
478
root 20.024747 35.126493 -12.432389 -107.565374 1.715442 -178.672403
Spine 70.338996 1.424403 -8.763752
Head -13.347605 3.031848 -0.352254
LeftShoulder -20.036499 20.069708 11.320183
LeftArm -58.226903 9.757566 -101.985668
LeftForeArm 20.147658 -0.000000 -0.729940
LeftHand -1.208758 -0.000000 -41.432079
LeftHandThumb1 -26.253704 0.000000 33.147579
RightShoulder -25.135070 -50.687867 -5.451067
RightArm -21.724676 -24.608380 85.358674
RightForeArm -34.730789 -0.000000 7.709584
RightHand 4.556127 -0.000000 49.144986
RightHandThumb1 -24.326973 -0.000000 -32.862282
LeftUpLeg -77.721028 5.628053 4.825909
LeftLeg -5.052691 -0.000000 0.000000
LeftFoot -7.172341 33.710267 -8.753223
LeftToeBase 26.959656 -0.000000 -0.000000
RightUpLeg -77.834476 -2.625649 -5.742031
RightLeg -4.689698 -0.000000 0.000000
RightFoot -6.353720 -19.565937 12.420651
RightToeBase 26.572120 -0.000000 -0.000000
479
root 20.023162 35.128595 -12.447805 -107.541438 1.761174 -178.672569
Spine 70.331579 1.437180 -8.790412
Head -13.412409 3.059367 -0.323275
LeftShoulder -20.037402 20.020685 11.319339
LeftArm -58.224491 9.805963 -102.080652
LeftForeArm 19.901692 -0.000000 -0.724227
LeftHand -1.192043 -0.000000 -41.414530
LeftHandThumb1 -26.253704 0.000000 33.147579
RightShoulder -25.151569 -50.641013 -5.428931
RightArm -21.655339 -24.769140 85.423356
RightForeArm -34.700942 0.000000 7.721438
RightHand 4.600405 -0.000000 49.115493
RightHandThumb1 -24.326973 -0.000000 -32.862282
LeftUpLeg -77.722181 5.633769 4.814301
LeftLeg -5.027126 -0.000000 0.000000
LeftFoot -7.204519 33.717575 -8.728786
LeftToeBase 26.992215 -0.000000 -0.000000
RightUpLeg -77.825406 -2.614076 -5.763707
RightLeg -4.717762 -0.000000 0.000000
RightFoot -6.363146 -19.557824 12.277869
RightToeBase 26.982738 -0.000000 -0.000000
480
root 20.019707 35.130757 -12.463269 -107.502436 1.808306 -178.685909
Spine 70.326052 1.440353 -8.814801
Head -13.476984 3.079446 -0.302507
LeftShoulder -20.023869 19.985180 11.347548
LeftArm -58.200185 9.839090 -102.153015
LeftForeArm 19.704605 0.000000 -0.748428
LeftHand -1.169819 -0.000000 -41.416067
LeftHandThumb1 -26.253704 0.000000 33.147579
RightShoulder -25.096829 -50.495256 -5.483752
RightArm -21.699677 -24.866099 85.529838
RightForeArm -34.732268 -0.000000 7.692233
RightHand 4.604501 0.000000 49.110074
RightHandThumb1 -24.326973 -0.000000 -32.862282
LeftUpLeg -77.735016 5.628272 4.749854
LeftLeg -5.028868 -0.000000 0.000000
LeftFoot -7.219938 33.719751 -8.700754
LeftToeBase 27.009637 -0.000000 -0.000000
RightUpLeg -77.830011 -2.623146 -5.772866
RightLeg -4.753129 -0.000000 0.000000
RightFoot -6.344255 -19.533739 12.378160
RightToeBase 26.579839 -0.000000 -0.000000
